<?xml version="1.0" encoding="iso-8859-1"?>
<!-- Generator: Adobe Illustrator 19.0.0, SVG Export Plug-In . SVG Version: 6.00 Build 0)  -->
<svg version="1.1" id="Layer_1" xmlns="http://www.w3.org/2000/svg" xmlns:xlink="http://www.w3.org/1999/xlink" x="0px" y="0px"
	 viewBox="0 0 512 512" style="enable-background:new 0 0 512 512;" xml:space="preserve">
<rect y="196.267" style="fill:#ACABB1;" width="273.067" height="153.6"/>
<rect y="196.267" style="fill:#414143;" width="273.067" height="34.133"/>
<polygon style="fill:#FFFFFF;" points="307.2,145.067 307.2,226.987 416.064,226.987 339.606,145.067 "/>
<polygon style="fill:#FF5023;" points="436.63,198.995 354.439,110.933 238.933,110.933 238.933,349.867 512,349.867 512,230.4 "/>
<path style="fill:#786145;" d="M125.156,264.533c-37.642,0-68.267,30.624-68.267,68.267s30.624,68.267,68.267,68.267
	s68.267-30.624,68.267-68.267S162.798,264.533,125.156,264.533z"/>
<path style="fill:#282017;" d="M125.156,401.067c37.642,0,68.267-30.624,68.267-68.267s-30.624-68.267-68.267-68.267"/>
<path style="fill:#FFFFFF;" d="M125.156,298.667c-18.821,0-34.133,15.312-34.133,34.133c0,18.821,15.312,34.133,34.133,34.133
	s34.133-15.312,34.133-34.133C159.289,313.979,143.977,298.667,125.156,298.667z"/>
<polygon style="fill:#A2001D;" points="436.63,198.995 386.844,145.654 386.844,349.867 512,349.867 512,230.4 "/>
<polygon style="fill:#CCF7F9;" points="416.064,226.987 307.2,226.987 307.2,145.067 339.606,145.067 "/>
<path style="fill:#786145;" d="M386.844,264.533c-37.642,0-68.267,30.624-68.267,68.267s30.624,68.267,68.267,68.267
	s68.267-30.624,68.267-68.267S424.487,264.533,386.844,264.533z"/>
<path style="fill:#282017;" d="M386.844,401.067c37.642,0,68.267-30.624,68.267-68.267s-30.624-68.267-68.267-68.267"/>
<path style="fill:#FFFFFF;" d="M386.844,298.667c-18.821,0-34.133,15.312-34.133,34.133c0,18.821,15.312,34.133,34.133,34.133
	s34.133-15.312,34.133-34.133C420.978,313.979,405.666,298.667,386.844,298.667z"/>
<g>
</g>
<g>
</g>
<g>
</g>
<g>
</g>
<g>
</g>
<g>
</g>
<g>
</g>
<g>
</g>
<g>
</g>
<g>
</g>
<g>
</g>
<g>
</g>
<g>
</g>
<g>
</g>
<g>
</g>
</svg>
